<svg xmlns="http://www.w3.org/2000/svg" width="100%" height="100%" viewBox="0 0 918 918" fill-rule="evenodd" stroke-linejoin="round" stroke-miterlimit="2"><path d="M-.006 0h917.748v917.751H-.006z" fill="#ffaa13"/><path d="M0 917.76V.001h917.752V917.76H0zM423.577 70.598H70.596v211.79h282.387v70.597H70.596v494.175h776.555v-211.79H564.768v-70.596h282.383V70.598h-70.592v70.597h-70.601v70.596h-70.593v-70.596h-70.596V70.598h-70.596V423.58h70.596V211.79h70.596v70.597h70.593V211.79h70.601v141.194 141.193H494.173v211.79h282.386v70.597H141.192v-70.597h-.003V564.773h.003V423.58h282.385V211.79H141.192v-70.596h282.385V70.598zm0 635.369v-70.597h-70.594v-70.596h-70.596v-70.597h-70.598v70.597h-.003 70.598v70.596h70.596v70.597h70.597z" fill="#2b3759"/></svg>